<?xml version="1.0" encoding="utf-8"?>
<!-- Generator: Adobe Illustrator 19.0.0, SVG Export Plug-In . SVG Version: 6.00 Build 0)  -->
<svg version="1.1" id="Layer_1" xmlns="http://www.w3.org/2000/svg" xmlns:xlink="http://www.w3.org/1999/xlink" x="0px" y="0px"
	 viewBox="0 0 233.7 52" style="enable-background:new 0 0 233.7 52;" xml:space="preserve">
<style type="text/css">
	.st0{display:none;fill:#D0509D;}
	.st1{fill:#FFFFFF;}
	.st2{fill:#804099;}
	.st3{display:none;}
	.st4{display:inline;fill:#804099;}
</style>
<rect id="XMLID_1_" x="-61.7" y="-58.7" class="st0" width="319.3" height="149.7"/>
<g id="XMLID_48_">
	<path id="XMLID_64_" class="st1" d="M12,3.9v9.9h8.4c1.5,0,2.2,0.8,2.2,2.5c0,1.7-0.7,2.5-2.1,2.5h-8.7l0,8.3
		c-0.1,3.7,1,5.9,3.4,6.4c2.4,0.6,4.3-0.3,5.9-2.5c0.9-2.4,2.2-3.1,3.9-2.3c1.7,0.8,1.9,2.5,0.6,5.1c-2.5,3.4-5.4,5.2-8.6,5.3
		c-3.2,0.1-5.9-1-7.9-3.1c-2-2.2-2.9-5.2-2.5-9v-8.2h-2c-1.4,0-2.2-0.8-2.2-2.5c0-1.7,0.7-2.5,2.1-2.5h2.2V3.7
		C6.6,2.1,7.5,1.4,9.3,1.4C11.2,1.4,12.1,2.3,12,3.9z"/>
	<path id="XMLID_62_" class="st1" d="M57.4,29c0.2,2.6,1.2,4.1,3.2,4.7c1.7,1,2.1,2.3,1.2,3.8c-0.9,1.5-2.3,1.9-4.3,1.1
		c-3.7-1.6-5.6-4.3-5.5-8L52,4.1c-0.2-1.8,0.7-2.7,2.8-2.6c2,0,2.9,0.9,2.7,2.6L57.4,29z"/>
	<path id="XMLID_59_" class="st1" d="M79.4,39.5c-2.9-0.1-5.6-1.3-8-3.4c-2.4-2.2-3.7-5.3-3.8-9.3c-0.1-4,1-7.4,3.3-10.2
		c2.3-2.8,5.3-4.2,8.9-4.3c3.6-0.1,6.5,0.8,8.8,2.6c2.3,1.8,3.5,5.2,3.6,10c0,1.7-0.8,2.7-2.3,3H73c0.2,1.9,1,3.5,2.5,4.6
		c1.5,1.2,3.4,1.8,5.6,1.8c2.2,0,4.1-0.8,5.6-2.5c0.9-1.3,2.1-1.5,3.5-0.7c1.4,0.8,1.5,2.2,0.3,4.1c-1.2,1.5-2.6,2.6-4.2,3.4
		C84.6,39.3,82.3,39.6,79.4,39.5z M77.1,17.5c-2.2,0.8-3.5,2.6-4,5.5h13.7c-0.3-2.9-1.4-4.8-3.4-5.5C81.4,16.7,79.3,16.7,77.1,17.5z
		"/>
	<path id="XMLID_57_" class="st1" d="M116.9,13.8c1,0.8,1.5,1.6,1.7,2.4c0.2,0.8,0,1.5-0.5,2.1c-0.5,0.6-1.1,0.8-1.7,0.8
		c-0.6,0-1.2-0.4-1.9-1c-0.6-0.7-1.9-1.1-3.8-1.4c-1.9-0.3-3.5,0-4.6,0.7c-1.1,0.8-1.5,1.9-1,3.4c0.5,1.5,2.6,2.3,6.4,2.5
		c3.8,0.2,6.4,1.3,7.9,3.2c1.5,2,1.8,4.2,1,6.9c-0.8,2.6-2.4,4.4-4.8,5.4c-2.4,1-5.1,1.2-8.2,0.7c-3.1-0.5-5.5-1.7-7.2-3.8
		c-1.7-2-1.9-3.6-0.6-4.8c1.3-1.2,2.8-0.9,4.4,1c1.6,1.9,3.8,2.9,6.7,3c2.8,0.1,4.4-1,4.8-3.1c0.4-2.2-1.1-3.4-4.5-3.8
		c-3.4-0.3-6-1-7.7-2c-1.7-1-2.7-2.6-3-4.8c-0.3-2.3,0.2-4.2,1.4-5.7c1.2-1.5,2.8-2.5,4.7-3.1c1.9-0.5,3.9-0.7,6.1-0.3
		C114.4,12.4,116,13,116.9,13.8z"/>
	<path id="XMLID_54_" class="st1" d="M129.2,50.2c-1.8,0-2.7-0.6-2.6-1.8V14.5c-0.1-1.2,0.7-1.8,2.6-1.8c1.8,0,2.7,0.6,2.7,1.7v2.4
		c2-2.9,4.7-4.3,8.2-4.2c3.5,0.1,6.3,1.5,8.3,4.1c2,2.6,3,5.8,2.9,9.6c-0.1,3.8-1.2,6.9-3.3,9.3c-2.1,2.4-4.8,3.7-8.3,3.8
		c-3.5,0.1-6.1-1-7.8-3.2v12.2C131.9,49.6,131,50.2,129.2,50.2z M136.1,33.5c2.1,0.8,4.1,0.8,6,0c1.9-0.9,3-2.4,3.5-4.6
		c0.5-2.2,0.5-4.3,0-6.3c-0.5-2-1.8-3.4-3.9-4.1c-2.1-0.7-4.1-0.7-6.1,0.2c-2,0.9-3.2,2.4-3.6,4.7v6.5
		C132.6,31.4,134,32.6,136.1,33.5z"/>
	<path id="XMLID_52_" class="st1" d="M200,16.3c1.2,1.7,1.3,3,0.2,4c-1.1,1-2.3,1.1-3.6,0.1c-1.7-1.9-3.5-2.8-5.4-2.7
		c-1.9,0.1-3.6,0.9-4.9,2.4c-1.3,1.6-1.9,3.8-1.8,6.5c0.1,2.8,1.1,4.8,2.8,6c1.8,1.2,3.6,1.6,5.5,1.3c1.9-0.3,3.2-1.1,3.9-2.3
		c1-1.4,2.1-1.8,3.4-1.1c1.3,0.7,1.6,1.8,1,3.4c-1,1.7-2.5,3.1-4.6,4.1c-2.1,1-4.7,1.2-7.8,0.7c-3.1-0.5-5.5-1.9-7.1-4.1
		c-1.6-2.2-2.4-5-2.4-8.5c0-3.4,1-6.5,2.9-9.1c1.9-2.6,4.8-4,8.5-4.3C194.6,12.6,197.7,13.7,200,16.3z"/>
	<path id="XMLID_49_" class="st1" d="M218.6,39.5c-2.9-0.1-5.6-1.3-8-3.4c-2.4-2.2-3.7-5.3-3.8-9.3c-0.1-4,1-7.4,3.3-10.2
		c2.3-2.8,5.3-4.2,8.9-4.3c3.6-0.1,6.5,0.8,8.8,2.6c2.3,1.8,3.5,5.2,3.6,10c0,1.7-0.8,2.7-2.3,3h-16.8c0.2,1.9,1,3.5,2.5,4.6
		c1.5,1.2,3.4,1.8,5.6,1.8c2.2,0,4.1-0.8,5.6-2.5c0.9-1.3,2.1-1.5,3.5-0.7c1.4,0.8,1.5,2.2,0.3,4.1c-1.2,1.5-2.6,2.6-4.2,3.4
		C223.8,39.3,221.6,39.6,218.6,39.5z M216.4,17.5c-2.2,0.8-3.5,2.6-4,5.5H226c-0.3-2.9-1.4-4.8-3.4-5.5
		C220.6,16.7,218.5,16.7,216.4,17.5z"/>
</g>
<path id="XMLID_14_" class="st2" d="M174.3,16.1c-3.3-5.1-10.2-6.5-15.3-3.2c-5.1,3.3-6.8,10.4-3.4,15.5
	c3.3,5.1,20.7,10.9,20.7,10.9S177.6,21.2,174.3,16.1z M164.9,30.4c-4.7,0-8.6-3.8-8.6-8.6c0-4.7,3.8-8.6,8.6-8.6
	c4.7,0,8.6,3.8,8.6,8.6C173.5,26.6,169.7,30.4,164.9,30.4z"/>
<g id="XMLID_18_" class="st3">
	<path id="XMLID_40_" class="st4" d="M147,68.4V75c0,0.1,0,0.2-0.1,0.2c-0.1,0.1-0.1,0.1-0.2,0.1c-0.1,0-0.2,0-0.2-0.1
		c-0.1-0.1-0.1-0.1-0.1-0.2v-6.6h-2.2c-0.1,0-0.2,0-0.2-0.1c-0.1-0.1-0.1-0.1-0.1-0.2c0-0.1,0-0.2,0.1-0.2c0.1-0.1,0.1-0.1,0.2-0.1
		h5.1c0.1,0,0.2,0,0.2,0.1c0.1,0.1,0.1,0.1,0.1,0.2c0,0.1,0,0.2-0.1,0.2c-0.1,0.1-0.1,0.1-0.2,0.1H147z"/>
	<path id="XMLID_37_" class="st4" d="M150.9,74.3c0.2,0.2,0.6,0.3,0.9,0.4c0.1,0,0.1,0,0.2,0c0.3,0,0.6-0.1,0.9-0.2
		c0.3-0.1,0.7-0.3,0.9-0.6c0.1-0.1,0.1-0.1,0.2-0.1c0.1,0,0.2,0,0.2,0.1c0.1,0.1,0.1,0.1,0.1,0.2v0c0,0.1,0,0.2-0.1,0.2
		c-0.4,0.4-0.8,0.6-1.3,0.8c-0.3,0.1-0.6,0.2-0.9,0.2c-0.1,0-0.3,0-0.4,0c-0.5-0.1-0.9-0.3-1.2-0.6c-0.3-0.3-0.6-0.8-0.6-1.4
		c0-0.1,0-0.2,0-0.3c-0.1-0.1-0.2-0.1-0.2-0.2c0,0,0-0.1,0-0.1c0,0,0,0,0-0.1c0-0.1,0.1-0.2,0.2-0.2c0.1-0.7,0.4-1.3,0.9-1.7
		c0.5-0.5,1-0.7,1.7-0.7h0c0.5,0,0.9,0.2,1.2,0.5c0.3,0.3,0.4,0.6,0.4,1.1c0,0.4-0.1,0.8-0.4,1.1c-0.3,0.3-0.7,0.5-1.3,0.6
		c-0.2,0-0.3,0-0.5,0c-0.4,0-0.8,0-1.4-0.1C150.4,73.6,150.6,74,150.9,74.3z M150.3,72.5c0.5,0.1,1,0.1,1.4,0.1c0.2,0,0.3,0,0.4,0
		c0.4,0,0.6-0.1,0.8-0.3c0.2-0.2,0.3-0.4,0.3-0.7v0c0-0.2-0.1-0.5-0.3-0.6c-0.2-0.2-0.5-0.3-0.8-0.3h0c-0.5,0-0.9,0.2-1.3,0.5
		C150.7,71.4,150.4,71.9,150.3,72.5z"/>
	<path id="XMLID_34_" class="st4" d="M159.1,75c-0.4,0.2-0.7,0.4-1,0.4c-0.7,0-1.2-0.3-1.5-0.8c-0.3-0.4-0.4-1-0.4-1.7
		c0-0.5,0.1-0.9,0.2-1.3c0.2-0.4,0.4-0.8,0.7-1.1c0.5-0.4,1-0.6,1.7-0.6c0.5,0,1,0.1,1.6,0.3c0.1,0,0.1,0,0.1,0c0,0,0.1,0,0.1,0
		c0.1,0,0.1,0.1,0.2,0.2c0,0,0,0.1,0,0.1c0,0,0,0.1,0,0.1l0,0l0,0c-0.1,0.3-0.1,0.6-0.2,1c0,0.3,0,0.5,0,0.8v0.2c0,0.1,0,0.1,0,0.2
		c0,0.1,0,0.2,0,0.3c0,0.2,0,0.5,0.1,0.7c0.1,0.6,0.3,1,0.6,1c0.1,0,0.2,0,0.2,0.1c0.1,0.1,0.1,0.1,0.1,0.2c0,0.1,0,0.2-0.1,0.2
		c-0.1,0.1-0.1,0.1-0.2,0.1c-0.5,0-1-0.5-1.2-1.5C159.7,74.4,159.4,74.7,159.1,75z M160,72.7c0-0.1,0-0.2,0-0.3
		c0-0.6,0.1-1.1,0.2-1.7c-0.5-0.1-0.9-0.2-1.3-0.2h-0.1c-0.4,0-0.8,0.1-1.1,0.2c-0.7,0.4-1,1.1-1,2.1c0,0.5,0.1,0.9,0.2,1.2
		c0.2,0.4,0.6,0.6,1.1,0.6c0.4,0,0.8-0.2,1.2-0.7C159.5,73.6,159.8,73.2,160,72.7z"/>
	<path id="XMLID_32_" class="st4" d="M166,70.5c-0.1,0-0.2,0-0.2,0c-0.3,0-0.6,0.1-0.9,0.3c-0.4,0.2-0.6,0.6-0.8,1
		c-0.1,0.3-0.2,0.7-0.2,1c0,0.1,0,0.3,0,0.4c0.1,0.5,0.2,0.8,0.5,1.1c0.2,0.2,0.5,0.4,0.9,0.4c0.1,0,0.1,0,0.2,0
		c0.3,0,0.5-0.1,0.8-0.2c0.4-0.1,0.7-0.3,0.9-0.6c0.1-0.1,0.1-0.1,0.2-0.1h0c0.1,0,0.2,0,0.2,0.1c0.1,0.1,0.1,0.1,0.1,0.2
		c0,0.1,0,0.2-0.1,0.2c-0.4,0.4-0.8,0.6-1.3,0.8c-0.3,0.1-0.6,0.2-0.9,0.2c-0.2,0-0.3,0-0.5,0c-0.5-0.1-0.9-0.3-1.2-0.6
		c-0.3-0.4-0.6-0.8-0.6-1.4c0-0.2,0-0.3,0-0.5c0-0.5,0.1-0.9,0.3-1.4c0.3-0.5,0.7-0.9,1.2-1.2c0.4-0.2,0.7-0.3,1.1-0.3
		c0.1,0,0.3,0,0.4,0c0.6,0.1,1,0.4,1.4,1c0,0.1,0.1,0.1,0.1,0.2c0,0,0,0.1,0,0.1c0,0.1-0.1,0.2-0.1,0.2c-0.1,0-0.1,0.1-0.2,0.1
		c0,0,0,0-0.1,0c-0.1,0-0.2-0.1-0.2-0.1C166.8,70.8,166.5,70.6,166,70.5z"/>
	<path id="XMLID_30_" class="st4" d="M173.9,74.6c0-0.2-0.1-0.4-0.1-0.7c0-0.1,0-0.2,0-0.4v-0.2c0-0.1,0-0.1,0-0.2s0-0.1,0-0.3v-0.1
		l0-0.1v-0.4c0-0.3,0-0.5,0-0.7c-0.1-0.8-0.4-1.2-0.8-1.2c-0.6,0-1.1,0.3-1.5,0.9c-0.4,0.5-0.6,1.1-0.7,1.7c0,0.7,0,1.3,0,1.8
		c0,0.1,0,0.2-0.1,0.2c-0.1,0.1-0.1,0.1-0.2,0.1c-0.1,0-0.2,0-0.2-0.1c-0.1-0.1-0.1-0.1-0.1-0.2c0-0.5,0-1.1,0-1.7c0,0,0-0.1,0-0.1
		c0,0,0,0,0-0.1l0,0l0-1.3l0-1.3c0-1,0-1.9,0-2.6c0-0.1,0-0.2,0.1-0.2s0.1-0.1,0.2-0.1c0.1,0,0.2,0,0.2,0.1s0.1,0.1,0.1,0.2
		c0,0.8,0,1.9,0,3.5c0.4-0.6,0.8-0.9,1.1-1.1c0.4-0.2,0.7-0.3,1.1-0.3c0.7,0,1.1,0.4,1.3,1.2c0.1,0.3,0.1,0.7,0.1,1.1
		c0,0.1,0,0.2,0,0.3v0.7c0,0,0,0,0,0.1v0.1c0,0,0,0.1,0,0.1v0.2c0,0.1,0,0.2,0,0.3c0,0.5,0.1,0.7,0.3,0.7c0.1,0,0.2,0,0.2,0.1
		c0.1,0.1,0.1,0.1,0.1,0.2c0,0.1,0,0.2-0.1,0.2c-0.1,0.1-0.1,0.1-0.2,0.1C174.3,75.3,174,75.1,173.9,74.6z"/>
	<path id="XMLID_28_" class="st4" d="M180.7,76.8c0.1,0.1,0.2,0.2,0.3,0.2c0,0,0.1,0,0.1,0c0.2,0,0.4-0.2,0.6-0.5
		c0.1-0.1,0.1-0.2,0.2-0.4c0-0.1,0.1-0.1,0.1-0.2c0,0,0-0.1,0-0.1c0.1-0.3,0.2-0.6,0.4-1c-0.5-0.5-1-1.3-1.4-2.3
		c-0.4-1-0.6-1.8-0.6-2.4c0-0.1,0-0.2,0.1-0.2c0.1-0.1,0.1-0.1,0.2-0.1c0.1,0,0.2,0,0.2,0.1c0.1,0.1,0.1,0.1,0.1,0.2
		c0,0.4,0.2,1,0.5,1.9c0.3,0.8,0.7,1.6,1.2,2.2l0.4-1.2l0.3-1c0.2-0.8,0.5-1.4,0.7-1.9c0-0.1,0.1-0.1,0.2-0.2c0,0,0.1,0,0.1,0
		c0,0,0.1,0,0.1,0c0.1,0,0.1,0.1,0.2,0.2c0,0,0,0.1,0,0.1c0,0,0,0.1,0,0.1c-0.2,0.6-0.6,1.6-1,2.9l-0.2,0.7l-0.2,0.7
		c-0.2,0.5-0.3,1-0.5,1.5c-0.2,0.5-0.4,0.9-0.7,1.2c-0.3,0.3-0.5,0.4-0.8,0.4c-0.1,0-0.2,0-0.3,0c-0.2-0.1-0.4-0.2-0.5-0.4
		c-0.1-0.2-0.2-0.4-0.3-0.6c0,0,0,0,0-0.1c0-0.1,0-0.1,0.1-0.2c0.1-0.1,0.1-0.1,0.2-0.1c0,0,0,0,0.1,0c0.1,0,0.1,0,0.2,0.1
		c0.1,0.1,0.1,0.1,0.1,0.2C180.6,76.6,180.6,76.7,180.7,76.8z"/>
	<path id="XMLID_25_" class="st4" d="M190,70.2c0.3,0.2,0.6,0.5,0.7,0.9c0.2,0.4,0.3,0.9,0.3,1.4v0c0,0.5-0.1,0.9-0.3,1.4
		c-0.2,0.5-0.5,0.8-0.8,1.1c-0.4,0.3-0.8,0.4-1.3,0.4c-0.6,0-1.1-0.2-1.5-0.5c-0.4-0.3-0.6-0.8-0.7-1.5c0-0.2,0-0.3,0-0.5
		c0-0.2,0-0.5,0.1-0.7c0.1-0.4,0.3-0.8,0.5-1.1c0.2-0.3,0.5-0.6,0.8-0.8c0.3-0.2,0.7-0.3,1.1-0.3h0C189.3,69.9,189.7,70,190,70.2z
		 M188.9,70.5L188.9,70.5c-0.3,0-0.6,0.1-0.9,0.3c-0.2,0.2-0.5,0.4-0.6,0.7c-0.2,0.3-0.3,0.6-0.3,0.9c0,0.2,0,0.4,0,0.5
		c0,0.1,0,0.3,0,0.4c0.1,0.5,0.2,0.8,0.5,1.1c0.3,0.3,0.7,0.4,1.1,0.4c0.4,0,0.7-0.1,1-0.4c0.3-0.2,0.4-0.5,0.6-0.9
		c0.1-0.3,0.2-0.6,0.2-1v-0.1c0-0.4-0.1-0.7-0.2-1C189.9,70.8,189.5,70.5,188.9,70.5z"/>
	<path id="XMLID_23_" class="st4" d="M198.1,74.8c0.1,0.1,0.1,0.1,0.1,0.2c0,0,0,0,0,0.1c0,0.1,0,0.1-0.1,0.2
		c-0.1,0.1-0.1,0.1-0.2,0.1c0,0-0.1,0-0.1,0c-0.2,0-0.4-0.1-0.5-0.3c-0.1-0.2-0.2-0.6-0.3-1.2c-0.4,0.6-0.8,1-1.1,1.2
		c-0.4,0.2-0.7,0.4-1.1,0.4c-0.7,0-1.1-0.4-1.3-1.2c-0.1-0.3-0.1-0.7-0.1-1.1c0-0.2,0-0.3,0-0.5v-0.3c0-0.1,0-0.2,0-0.2v-1.8
		c0-0.1,0-0.2,0.1-0.2c0.1-0.1,0.1-0.1,0.2-0.1c0.1,0,0.2,0,0.2,0.1c0.1,0.1,0.1,0.1,0.1,0.2V72c0,0,0,0.1,0,0.3l0,0.1v0.1
		c0,0.1,0,0.1,0,0.2v0.2c0,0.3,0,0.5,0,0.7c0.1,0.8,0.4,1.2,0.8,1.2c0.6,0,1.1-0.3,1.5-1c0.4-0.5,0.6-1.1,0.7-1.7l0-1.8
		c0-0.1,0-0.2,0.1-0.2c0.1-0.1,0.1-0.1,0.2-0.1c0.1,0,0.2,0,0.2,0.1c0.1,0.1,0.1,0.1,0.1,0.2l0,3.7c0,0,0,0.1,0,0.1
		c0,0.1,0,0.1,0,0.2c0,0.2,0.1,0.3,0.1,0.4C197.9,74.7,198,74.7,198.1,74.8z"/>
	<path id="XMLID_21_" class="st4" d="M203,70.7c-0.1-0.1-0.2-0.2-0.3-0.2c0,0-0.1,0-0.1,0c-0.1,0-0.3,0-0.4,0.1
		c-0.1,0.1-0.3,0.2-0.4,0.3c-0.4,0.4-0.6,0.9-0.8,1.5l0,0.7l0,0.6c0,0.5,0,0.9,0,1.3c0,0.1,0,0.2-0.1,0.2c-0.1,0.1-0.1,0.1-0.2,0.1
		c-0.1,0-0.2,0-0.2-0.1c-0.1-0.1-0.1-0.1-0.1-0.2c0-0.4,0-0.8,0-1.2l0-0.6l0-0.6c0-1.1,0-1.9,0-2.4c0-0.1,0-0.2,0.1-0.2
		c0.1-0.1,0.1-0.1,0.2-0.1c0.1,0,0.2,0,0.2,0.1c0.1,0.1,0.1,0.1,0.1,0.2l0,0.7c0.4-0.5,0.7-0.8,1-0.9c0.2-0.1,0.4-0.1,0.6-0.1
		c0.1,0,0.2,0,0.3,0c0.4,0.1,0.7,0.4,0.9,0.8c0,0,0,0.1,0,0.1c0,0,0,0.1,0,0.1c0,0.1-0.1,0.1-0.2,0.2c0,0-0.1,0-0.1,0
		c0,0-0.1,0-0.1,0c-0.1,0-0.1-0.1-0.2-0.2C203.1,70.9,203.1,70.8,203,70.7z"/>
	<path id="XMLID_19_" class="st4" d="M211.4,70.6c-0.2-0.1-0.4-0.1-0.6-0.1h-0.1c-0.2,0-0.4,0-0.6,0.1c-0.3,0.1-0.4,0.3-0.4,0.6
		c0,0.3,0.2,0.6,0.5,0.8c0.1,0.1,0.3,0.1,0.5,0.2c0.1,0,0.2,0.1,0.3,0.1l0.1,0l0.1,0c0.5,0.1,0.8,0.3,1,0.5c0.3,0.3,0.4,0.6,0.4,1
		c0,0.2-0.1,0.4-0.2,0.6c-0.1,0.2-0.3,0.3-0.5,0.4c-0.4,0.2-0.8,0.4-1.3,0.4c-0.3,0-0.7-0.1-1-0.2c-0.3-0.1-0.6-0.3-0.9-0.5
		c-0.1-0.1-0.1-0.1-0.1-0.2v0c0-0.1,0-0.1,0.1-0.2c0.1-0.1,0.1-0.1,0.2-0.1h0c0.1,0,0.1,0,0.2,0.1c0.2,0.2,0.4,0.3,0.7,0.4
		c0.2,0.1,0.5,0.1,0.7,0.1h0c0.1,0,0.2,0,0.3,0c0.1,0,0.3-0.1,0.4-0.1c0.3-0.1,0.5-0.3,0.5-0.6c0-0.3-0.2-0.6-0.5-0.8
		c-0.1-0.1-0.3-0.1-0.5-0.2l-0.1,0l-0.1,0c-0.1,0-0.2-0.1-0.3-0.1c-0.5-0.1-0.8-0.3-1-0.5c-0.3-0.3-0.4-0.6-0.4-1.1
		c0-0.2,0.1-0.4,0.2-0.6c0.1-0.2,0.2-0.3,0.4-0.4c0.2-0.1,0.4-0.2,0.6-0.3c0.2,0,0.3-0.1,0.5-0.1c0,0,0.1,0,0.1,0
		c0.3,0,0.6,0.1,0.9,0.2c0.3,0.1,0.6,0.3,0.7,0.5c0.1,0.1,0.1,0.1,0.1,0.2v0c0,0.1,0,0.2-0.1,0.2c-0.1,0.1-0.1,0.1-0.2,0.1h0
		c-0.1,0-0.2,0-0.2-0.1C211.8,70.8,211.6,70.7,211.4,70.6z"/>
</g>
<path id="XMLID_69_" class="st2" d="M46.4,16.1C43,11,36.2,9.5,31.1,12.9c-5.1,3.3-6.8,10.4-3.4,15.5c3.3,5.1,20.7,10.9,20.7,10.9
	S49.7,21.2,46.4,16.1z M37,30.4c-4.7,0-8.6-3.8-8.6-8.6c0-4.7,3.8-8.6,8.6-8.6s8.6,3.8,8.6,8.6C45.6,26.6,41.8,30.4,37,30.4z"/>
<g id="XMLID_2_" class="st3">
	<path id="XMLID_10_" class="st4" d="M215.4,70.6l0-2.6c0-0.1,0-0.2,0.1-0.2c0.1-0.1,0.1-0.1,0.2-0.1h0c0.1,0,0.2,0,0.2,0.1
		c0.1,0.1,0.1,0.1,0.1,0.2l0,2.4l1.9-0.5c0,0,0.1,0,0.1,0c0.1,0,0.1,0,0.2,0c0.1,0,0.1,0.1,0.1,0.2c0,0,0,0.1,0,0.1
		c0,0.1,0,0.1,0,0.2c-0.1,0.1-0.1,0.1-0.2,0.1l-2,0.5l0,1.9c0,0.1,0,0.2,0,0.3c0,0.1,0,0.2,0,0.3c0,0.2,0.1,0.4,0.1,0.5
		c0.1,0.4,0.4,0.6,0.8,0.7c0.1,0,0.2,0,0.2,0c0.2,0,0.4,0,0.5-0.1c0.1-0.1,0.2-0.2,0.3-0.3c0-0.1,0.1-0.1,0.2-0.1c0,0,0,0,0.1,0
		c0.1,0,0.1,0,0.2,0.1c0.1,0,0.1,0.1,0.1,0.2c0,0,0,0,0,0.1c0,0.1,0,0.1-0.1,0.2c-0.1,0.2-0.3,0.4-0.5,0.5c-0.2,0.2-0.5,0.2-0.8,0.2
		c-0.1,0-0.2,0-0.3,0c-0.6-0.1-1-0.4-1.2-0.8c-0.2-0.4-0.3-0.9-0.3-1.6l0-1.8l-0.6,0.2c0,0-0.1,0-0.1,0c-0.1,0-0.1,0-0.2,0
		c-0.1,0-0.1-0.1-0.1-0.2c0,0,0-0.1,0-0.1c0-0.1,0-0.1,0-0.2c0.1-0.1,0.1-0.1,0.2-0.1L215.4,70.6z"/>
	<path id="XMLID_7_" class="st4" d="M224,70.3c0.3,0.2,0.6,0.5,0.7,0.9c0.2,0.4,0.3,0.9,0.3,1.4v0c0,0.5-0.1,0.9-0.3,1.4
		c-0.2,0.5-0.5,0.8-0.8,1.1c-0.4,0.3-0.8,0.4-1.3,0.4c-0.6,0-1.1-0.2-1.5-0.5c-0.4-0.3-0.6-0.8-0.7-1.5c0-0.2,0-0.3,0-0.5
		c0-0.2,0-0.5,0.1-0.7c0.1-0.4,0.3-0.8,0.5-1.1c0.2-0.3,0.5-0.6,0.8-0.8c0.3-0.2,0.7-0.3,1.1-0.3h0C223.3,70,223.7,70.1,224,70.3z
		 M222.9,70.6L222.9,70.6c-0.3,0-0.6,0.1-0.9,0.3c-0.2,0.2-0.5,0.4-0.6,0.7c-0.2,0.3-0.3,0.6-0.3,0.9c0,0.2,0,0.4,0,0.5
		c0,0.1,0,0.3,0,0.4c0.1,0.5,0.2,0.8,0.5,1.1c0.3,0.3,0.7,0.4,1.1,0.4c0.4,0,0.7-0.1,1-0.4c0.3-0.2,0.4-0.5,0.6-0.9
		c0.1-0.3,0.2-0.6,0.2-1v-0.1c0-0.4-0.1-0.7-0.2-1C223.9,70.9,223.5,70.6,222.9,70.6z"/>
	<path id="XMLID_5_" class="st4" d="M230,70.8c-0.1-0.1-0.2-0.2-0.3-0.2c0,0-0.1,0-0.1,0c-0.1,0-0.3,0-0.4,0.1
		c-0.1,0.1-0.3,0.2-0.4,0.3c-0.4,0.4-0.6,0.9-0.8,1.5l0,0.7l0,0.6c0,0.5,0,0.9,0,1.3c0,0.1,0,0.2-0.1,0.2c-0.1,0.1-0.1,0.1-0.2,0.1
		c-0.1,0-0.2,0-0.2-0.1c-0.1-0.1-0.1-0.1-0.1-0.2c0-0.4,0-0.8,0-1.2l0-0.6l0-0.6c0-1.1,0-1.9,0-2.4c0-0.1,0-0.2,0.1-0.2
		c0.1-0.1,0.1-0.1,0.2-0.1c0.1,0,0.2,0,0.2,0.1c0.1,0.1,0.1,0.1,0.1,0.2l0,0.7c0.4-0.5,0.7-0.8,1-0.9c0.2-0.1,0.4-0.1,0.6-0.1
		c0.1,0,0.2,0,0.3,0c0.4,0.1,0.7,0.4,0.9,0.8c0,0,0,0.1,0,0.1c0,0,0,0.1,0,0.1c0,0.1-0.1,0.1-0.2,0.2c0,0-0.1,0-0.1,0s-0.1,0-0.1,0
		c-0.1,0-0.1-0.1-0.2-0.2C230.1,71,230.1,70.9,230,70.8z"/>
	<path id="XMLID_3_" class="st4" d="M233.2,76.9c0.1,0.1,0.2,0.2,0.3,0.2c0,0,0.1,0,0.1,0c0.2,0,0.4-0.2,0.6-0.5
		c0.1-0.1,0.1-0.2,0.2-0.4c0-0.1,0.1-0.1,0.1-0.2c0,0,0-0.1,0-0.1c0.1-0.3,0.2-0.6,0.4-1c-0.5-0.5-1-1.3-1.4-2.3
		c-0.4-1-0.6-1.8-0.6-2.4c0-0.1,0-0.2,0.1-0.2c0.1-0.1,0.1-0.1,0.2-0.1c0.1,0,0.2,0,0.2,0.1c0.1,0.1,0.1,0.1,0.1,0.2
		c0,0.4,0.2,1,0.5,1.9c0.3,0.8,0.7,1.6,1.2,2.2l0.4-1.2l0.3-1c0.2-0.8,0.5-1.4,0.7-1.9c0-0.1,0.1-0.1,0.2-0.2c0,0,0.1,0,0.1,0
		c0,0,0.1,0,0.1,0c0.1,0,0.1,0.1,0.2,0.2c0,0,0,0.1,0,0.1c0,0,0,0.1,0,0.1c-0.2,0.6-0.6,1.6-1,2.9l-0.2,0.7l-0.2,0.7
		c-0.2,0.5-0.3,1-0.5,1.5c-0.2,0.5-0.4,0.9-0.7,1.2c-0.3,0.3-0.5,0.4-0.8,0.4c-0.1,0-0.2,0-0.3,0c-0.2-0.1-0.4-0.2-0.5-0.4
		c-0.1-0.2-0.2-0.4-0.3-0.6c0,0,0,0,0-0.1c0-0.1,0-0.1,0.1-0.2c0.1-0.1,0.1-0.1,0.2-0.1c0,0,0,0,0.1,0c0.1,0,0.1,0,0.2,0.1
		c0.1,0.1,0.1,0.1,0.1,0.2C233.1,76.8,233.1,76.8,233.2,76.9z"/>
</g>
</svg>
